PathFileType	4	(X/Y/Z)	/Users/visionmauri/Downloads/Videos/OAW12-top_Sports2D/OAW12-top_Sports2D_px_person00.trc
DataRate	CameraRate	NumFrames	NumMarkers	Units	OrigDataRate	OrigDataStartFrame	OrigNumFrames
25.0	25.0	9	22	m	25.0	1296	1729
Frame#	Time	Hip			RHip			RKnee			RAnkle			RBigToe			RSmallToe			RHeel			LHip			LKnee			LAnkle			LBigToe			LSmallToe			LHeel			Neck			Head			Nose			RShoulder			RElbow			RWrist			LShoulder			LElbow			LWrist			
		X1	Y1	Z1	X2	Y2	Z2	X3	Y3	Z3	X4	Y4	Z4	X5	Y5	Z5	X6	Y6	Z6	X7	Y7	Z7	X8	Y8	Z8	X9	Y9	Z9	X10	Y10	Z10	X11	Y11	Z11	X12	Y12	Z12	X13	Y13	Z13	X14	Y14	Z14	X15	Y15	Z15	X16	Y16	Z16	X17	Y17	Z17	X18	Y18	Z18	X19	Y19	Z19	X20	Y20	Z20	X21	Y21	Z21	X22	Y22	Z22
1296	51.87	535.508753354334	553.5861230352241	0.0	558.1471891789415	553.3375838151688	0.0	545.866221677879	645.4462262669399	0.0	541.6714948075597	726.6013663730336	0.0	530.5556679184359	748.1333589876014	0.0	550.6304811436977	748.88236528649	0.0	538.8203255604611	745.3858690659307	0.0	513.2579057275688	553.2279734981012	0.0	510.81824047283544	644.0019238057344	0.0	512.2037733015123	717.1238273490355	0.0	521.344672108766	767.029659834632	0.0	502.95935582033354	763.098131192696	0.0	512.2727410277533	734.978148240621	0.0	538.3806182656243	420.58285561994944	0.0	542.211974480962	358.8300796858971	0.0	537.885244649654	394.0672575430313	0.0	576.5920045256125	444.9754085042856	0.0	588.4192121947627	513.9524690545195	0.0	598.6736793283545	572.9897488048816	0.0	495.034535336186	436.8591556935966	0.0	477.0536667474411	503.5035820901769	0.0	479.102636979408	555.405518418866	0.0
1297	51.91002314814815	536.7786369548596	550.8998107348118	0.0	559.7348032651497	551.175513452694	0.0	546.259208084225	644.0675382110556	0.0	541.7849621861668	727.3316886038758	0.0	531.2352232865405	747.5396790952797	0.0	551.5323459807028	749.2493883698289	0.0	539.2751293159068	745.7860905562942	0.0	514.5399721743123	550.6969979730645	0.0	510.71534913382857	639.6099355446263	0.0	512.2951121595796	705.9871484081417	0.0	520.4278921553715	760.5663027921378	0.0	501.5350187208345	755.6265127872663	0.0	512.7497730814099	722.249108843634	0.0	539.0288368293774	418.42336891232964	0.0	542.6716174655568	356.9841537661427	0.0	539.8436895907923	392.1201596299904	0.0	577.5859779775534	442.6283728394604	0.0	589.8811538267646	511.12494550357417	0.0	599.9358597935765	569.1313202225738	0.0	495.3376791275889	435.56737139057657	0.0	478.61717765138116	502.0713490159058	0.0	480.3081162634798	553.5511267323324	0.0
1298	51.95004629629629	537.4810982344732	548.5833072679486	0.0	560.4362235575045	549.2488460173154	0.0	546.3440138675428	642.794039515187	0.0	542.0068898262912	725.7514762184903	0.0	531.6256230249171	747.1801309207515	0.0	551.4695042043498	748.7539093278411	0.0	539.8996459175668	744.464128606321	0.0	514.9982961831377	548.4349999081788	0.0	510.8866772974237	635.6466671765154	0.0	512.3966227923115	698.5619954188121	0.0	518.4788480565335	752.3965440556312	0.0	499.75335416157486	747.2352980076618	0.0	513.4428962389496	714.9460530526762	0.0	539.5637423633609	416.1947681099588	0.0	542.6695796506039	354.8729355648792	0.0	541.0144182766759	389.2814017069038	0.0	578.9286900859724	440.5303296713376	0.0	591.2421661008527	509.00970705239786	0.0	600.9769053026137	566.4420159272603	0.0	495.2270319694184	435.04073383983115	0.0	479.6070048711262	501.45091301932797	0.0	480.32008566774584	552.5621312411538	0.0
1299	51.990069444444444	537.3420142718751	546.6574217537367	0.0	560.4262682128434	546.9529707514886	0.0	546.3718282611554	640.3635134265259	0.0	542.4472595090358	723.2874170413218	0.0	531.6000289738909	746.7208731601272	0.0	550.9154475353995	747.8532900081005	0.0	540.8910152087931	742.6074336713166	0.0	514.3491952441751	546.5465989251196	0.0	511.1091534493406	631.7461013451655	0.0	512.1580442899751	696.1990499156817	0.0	516.0841950766195	745.431457854193	0.0	498.2722806685029	740.7002985354911	0.0	513.8488757550323	713.0957704994631	0.0	540.0346754687165	415.47483853611794	0.0	542.6106035216031	353.43097731690045	0.0	541.0906429962149	386.92050209657316	0.0	579.842850383102	438.7015635045636	0.0	592.1785085203209	506.13560245794883	0.0	601.4343991610898	563.6237963046871	0.0	495.5303054437854	434.58101224478094	0.0	480.2878012746349	499.96810526429977	0.0	479.81831121280635	552.6074022234276	0.0
1300	52.030092592592595	536.9115072006227	545.1074729237231	0.0	560.3746037120056	544.8253550981331	0.0	546.3808335684246	638.7630488772857	0.0	542.7766357721862	721.5668484370799	0.0	531.4459181488378	745.3567747617863	0.0	551.5730383465778	747.1153812681048	0.0	541.5931533238202	741.2913429013985	0.0	513.5842801022796	544.5284171459025	0.0	511.1808791271873	629.7575229504355	0.0	511.7031282035073	697.4779815502937	0.0	515.1348593684787	739.2646028673614	0.0	497.7711377961972	735.8307752655712	0.0	513.9584927340228	714.085349355059	0.0	540.2624261432736	415.00313060561285	0.0	542.611772494946	352.485199410001	0.0	540.5249487891814	385.78858245841786	0.0	580.071607858862	437.4892598866118	0.0	592.761543779347	503.5642740475435	0.0	601.6795625571685	560.0248088533907	0.0	496.31764189282416	433.9281445952	0.0	481.0821375741875	498.11217709087174	0.0	479.2662273166948	552.8258697523414	0.0
1301	52.07011574074074	536.6627686477768	543.5284422148654	0.0	560.3178218708654	543.2068219737913	0.0	546.0000679504329	638.9666536526869	0.0	542.7472352568711	720.430629801344	0.0	531.3993693968813	743.0455844462105	0.0	553.5533619395289	746.4628259925875	0.0	541.653640595055	740.0141989775248	0.0	513.4429450948426	542.336417704779	0.0	511.1730395679684	630.1881861573221	0.0	511.3723991052337	699.9706405443665	0.0	515.2772039799174	732.682775245699	0.0	497.96530990289585	731.1140568207459	0.0	513.9588328554502	715.7166523336889	0.0	540.3195778847668	413.48006755815396	0.0	542.6432245309436	351.924857074881	0.0	539.9055843632442	385.42203702461217	0.0	580.080786298539	436.92293482392336	0.0	593.1686627314982	502.3497177888507	0.0	601.7788359387248	555.8378838446354	0.0	497.19916189999134	433.09895752514063	0.0	481.97439867021245	497.3406134485815	0.0	478.316190638078	552.5712924829805	0.0
1302	52.11013888888889	536.2813472944165	542.2813674337544	0.0	559.9034034911041	542.1365256940757	0.0	545.3714406116231	639.2542905328824	0.0	542.3291869428609	719.9862877855746	0.0	532.103054727507	740.9325380716004	0.0	554.8457144599582	745.4402082055503	0.0	541.1069654503085	738.882628179695	0.0	513.421219331897	540.9204125764659	0.0	511.14449302651514	630.2142675310768	0.0	511.24938816032835	701.9653366992789	0.0	514.1733932979336	725.4612270279006	0.0	498.1183575003007	725.5158516073737	0.0	513.7281690964528	717.4429506594521	0.0	540.306946449533	412.3267856848248	0.0	542.7330532480242	352.1420056971284	0.0	539.7318511324403	385.8420092038119	0.0	580.0111249016279	436.71834286238817	0.0	593.2541318634183	501.61220664730666	0.0	600.7991163003669	551.8735832406242	0.0	497.83625003326273	432.4194949987568	0.0	482.5096654282658	497.25839361095126	0.0	476.8233399407658	552.0468892496665	0.0
1303	52.150162037037035	535.4825491703958	542.041051981061	0.0	559.0879694118531	541.8071393550541	0.0	545.1168096061805	638.8133030187357	0.0	541.826145685756	720.4876534135052	0.0	533.5047004460722	740.003170205975	0.0	554.4376859909345	744.2254360897093	0.0	540.2354489891011	738.5413483241329	0.0	513.0929807002633	540.8866973803131	0.0	511.40894164309026	627.8543081256029	0.0	511.3295530761488	701.8883640458212	0.0	511.59044647406705	716.5468736425354	0.0	498.0473432932112	718.2257093083808	0.0	513.1116398332023	718.0428683896902	0.0	540.0510798620566	412.6292864022715	0.0	542.7766371809118	353.00227080048876	0.0	539.743997020872	387.4770008989674	0.0	579.4697679821785	436.75896678581535	0.0	592.8884832018366	500.84066426329497	0.0	598.5043625262638	548.694037507322	0.0	498.09599533630717	432.3085806846716	0.0	482.57909309918875	497.08310228224576	0.0	475.3618214316437	551.9126349724546	0.0
1304	52.190185185185186	534.752657497331	542.219596631939	0.0	558.2011767198626	542.0010320631155	0.0	545.3196646876177	638.5056087378069	0.0	541.6774081794697	720.6151827815634	0.0	534.7486241258658	739.2570328998012	0.0	553.4981338683497	743.2898110730035	0.0	539.8427184989821	738.5497640677028	0.0	512.7236958839177	541.3278409306156	0.0	512.477660693564	625.2995219963509	0.0	511.97518560725683	699.3718120347452	0.0	509.4464524971578	705.3717850392461	0.0	498.115249335536	710.6340381198193	0.0	512.8786392813812	715.746672719376	0.0	539.400562561785	413.43639050388555	0.0	542.452974716393	353.60044247308366	0.0	539.0661692162315	389.0576222377629	0.0	578.4933644182591	436.93295491451437	0.0	592.2663407544916	500.5493583760159	0.0	595.9404041688782	546.3958050049158	0.0	498.1647269373612	432.81353100854363	0.0	482.58915178483653	497.4368528644658	0.0	474.23110710246215	552.2775872360193	0.0
